<svg xmlns="http://www.w3.org/2000/svg" width="120" height="120" fill="none" viewBox="0 0 120 120"><defs><linearGradient id="r-grad" x1="0%" x2="100%" y1="0%" y2="100%"><stop offset="0%" stop-color="#8B5CF6"/><stop offset="100%" stop-color="#00A8FF"/></linearGradient><linearGradient id="bracket-grad" x1="0%" x2="100%" y1="0%" y2="100%"><stop offset="0%" stop-color="#00A8FF"/><stop offset="100%" stop-color="#8B5CF6"/></linearGradient></defs><rect width="120" height="120" fill="#0F1729" rx="28"/><rect width="14" height="64" x="30" y="28" fill="url(#r-grad)" rx="7"/><path fill="none" stroke="url(#r-grad)" stroke-linecap="round" stroke-linejoin="round" stroke-width="14" d="M44 28 L64 28 C78 28 84 36 84 46 C84 56 78 64 64 64 L44 64"/><path stroke="url(#r-grad)" stroke-linecap="round" stroke-width="14" d="M46 64 L82 92"/><path fill="none" stroke="url(#bracket-grad)" stroke-linecap="round" stroke-linejoin="round" stroke-width="3" d="M64 40 C60 40 60 44 56 44 C52 44 52 48 52 52 C52 56 52 60 56 60 C60 60 60 64 64 64" opacity=".8"/><path fill="none" stroke="url(#bracket-grad)" stroke-linecap="round" stroke-linejoin="round" stroke-width="3" d="M72 40 C76 40 76 44 80 44 C84 44 84 48 84 52 C84 56 84 60 80 60 C76 60 76 64 72 64" opacity=".8"/><circle cx="68" cy="52" r="2" fill="#00A8FF" opacity=".6"/></svg>